<?xml version="1.0" encoding="UTF-8" standalone="no"?>
<!DOCTYPE svg PUBLIC "-//W3C//DTD SVG 20010904//EN"
              "http://www.w3.org/TR/2001/REC-SVG-20010904/DTD/svg10.dtd">

<svg xmlns="http://www.w3.org/2000/svg"
     width="115.639mm" height="157.978mm"
     viewBox="0 0 437 597">
  <path id="Névtelen #1"
        fill="none" stroke="black" stroke-width="1"
        d="M 29.57,247.65
           C 29.57,247.65 29.39,220.65 29.39,220.65
             29.39,220.65 29.48,197.09 29.48,197.09
             29.48,197.09 29.48,171.65 29.48,171.65
             29.48,171.65 29.22,147.26 29.22,147.26
             29.22,147.26 28.57,123.57 28.57,123.57
             28.57,123.57 18.96,107.78 18.96,107.78
             18.96,107.78 11.35,95.48 11.35,95.48
             11.35,95.48 16.48,85.13 16.48,85.13
             16.48,85.13 24.35,69.83 24.35,69.83
             24.35,69.83 32.96,52.43 32.96,52.43
             32.96,52.43 37.52,45.04 37.52,45.04
             37.52,45.04 38.87,44.09 38.87,44.09
             38.87,44.09 39.96,43.48 39.96,43.48
             39.96,43.48 74.17,42.78 74.17,42.78
             74.17,42.78 83.00,42.70 83.00,42.70
             83.00,42.70 84.17,43.00 84.17,43.00
             84.17,43.00 84.65,44.87 84.65,44.87
             84.65,44.87 87.26,47.17 87.26,47.17
             87.26,47.17 88.52,50.78 88.52,50.78
             88.52,50.78 90.43,52.96 90.43,52.96
             90.43,52.96 92.00,55.70 92.00,55.70
             92.00,55.70 94.26,59.35 94.26,59.35
             94.26,59.35 95.61,62.13 95.61,62.13
             95.61,62.13 95.70,64.30 95.70,64.30
             95.70,64.30 128.35,63.78 128.35,63.78
             128.35,63.78 131.94,56.41 131.94,56.41
             131.94,56.41 134.06,54.06 134.06,54.06
             134.06,54.06 134.88,52.66 134.88,52.66
             134.88,52.66 136.28,52.22 136.28,52.22
             136.28,52.22 141.59,45.69 141.59,45.69
             141.59,45.69 143.66,42.69 143.66,42.69
             143.66,42.69 149.50,35.41 149.50,35.41
             149.50,35.41 150.88,34.06 150.88,34.06
             150.88,34.06 152.06,35.75 152.06,35.75
             152.06,35.75 151.59,38.53 151.59,38.53
             151.59,38.53 155.41,35.03 155.41,35.03
             155.41,35.03 157.16,35.19 157.16,35.19
             157.16,35.19 160.84,32.59 160.84,32.59
             160.84,32.59 164.94,32.22 164.94,32.22
             164.94,32.22 166.41,32.41 166.41,32.41
             166.41,32.41 166.50,35.88 166.50,35.88
             166.50,35.88 169.75,32.00 169.75,32.00
             169.75,32.00 178.28,21.62 178.28,21.62
             178.28,21.62 178.44,20.56 178.44,20.56
             178.44,20.56 182.28,20.59 182.28,20.59
             182.28,20.59 182.00,25.97 182.00,25.97
             182.00,25.97 180.69,27.41 180.69,27.41
             180.69,27.41 180.81,28.47 180.81,28.47
             180.81,28.47 183.97,27.09 183.97,27.09
             183.97,27.09 190.25,24.50 190.25,24.50
             190.25,24.50 193.84,24.12 193.84,24.12
             193.84,24.12 198.25,23.34 198.25,23.34
             198.25,23.34 202.41,18.62 202.41,18.62
             202.41,18.62 210.91,11.72 210.91,11.72
             210.91,11.72 212.44,10.34 212.44,10.34
             212.44,10.34 217.13,7.27 217.13,7.27
             217.13,7.27 218.56,6.42 218.56,6.42
             218.56,6.42 222.42,6.47 222.42,6.47
             222.42,6.47 224.64,6.73 224.64,6.73
             224.64,6.73 224.31,9.67 224.31,9.67
             224.31,9.67 223.47,12.44 223.47,12.44
             223.47,12.44 220.00,17.00 220.00,17.00
             220.00,17.00 218.42,19.58 218.42,19.58
             218.42,19.58 218.51,22.56 218.51,22.56
             218.51,22.56 228.04,22.18 228.04,22.18
             228.04,22.18 235.13,21.31 235.13,21.31
             235.13,21.31 237.24,21.18 237.24,21.18
             237.24,21.18 242.00,18.42 242.00,18.42
             242.00,18.42 247.22,18.31 247.22,18.31
             247.22,18.31 247.84,17.44 247.84,17.44
             247.84,17.44 250.62,17.53 250.62,17.53
             250.62,17.53 253.67,15.82 253.67,15.82
             253.67,15.82 257.84,15.33 257.84,15.33
             257.84,15.33 260.91,13.53 260.91,13.53
             260.91,13.53 262.42,13.51 262.42,13.51
             262.42,13.51 265.27,12.58 265.27,12.58
             265.27,12.58 270.51,11.64 270.51,11.64
             270.51,11.64 284.73,10.58 284.73,10.58
             284.73,10.58 285.40,11.44 285.40,11.44
             285.40,11.44 287.27,13.58 287.27,13.58
             287.27,13.58 287.16,15.78 287.16,15.78
             287.16,15.78 284.67,18.56 284.67,18.56
             284.67,18.56 276.53,19.66 276.53,19.66
             276.53,19.66 266.47,23.75 266.47,23.75
             266.47,23.75 265.53,23.75 265.53,23.75
             265.53,23.75 264.38,25.69 264.38,25.69
             264.38,25.69 262.81,26.75 262.81,26.75
             262.81,26.75 258.12,31.91 258.12,31.91
             258.12,31.91 257.53,35.06 257.53,35.06
             257.53,35.06 259.75,37.28 259.75,37.28
             259.75,37.28 263.53,37.03 263.53,37.03
             263.53,37.03 270.38,32.53 270.38,32.53
             270.38,32.53 279.22,30.48 279.22,30.48
             279.22,30.48 289.13,30.91 289.13,30.91
             289.13,30.91 293.57,32.57 293.57,32.57
             293.57,32.57 297.83,33.52 297.83,33.52
             297.83,33.52 306.96,34.57 306.96,34.57
             306.96,34.57 311.52,35.91 311.52,35.91
             311.52,35.91 312.70,38.39 312.70,38.39
             312.70,38.39 312.48,40.17 312.48,40.17
             312.48,40.17 308.26,41.78 308.26,41.78
             308.26,41.78 314.04,42.04 314.04,42.04
             314.04,42.04 317.52,43.13 317.52,43.13
             317.52,43.13 323.94,43.72 323.94,43.72
             323.94,43.72 329.78,44.16 329.78,44.16
             329.78,44.16 334.91,45.88 334.91,45.88
             334.91,45.88 340.00,47.97 340.00,47.97
             340.00,47.97 346.81,50.53 346.81,50.53
             346.81,50.53 354.75,53.59 354.75,53.59
             354.75,53.59 359.19,54.59 359.19,54.59
             359.19,54.59 367.16,58.47 367.16,58.47
             367.16,58.47 373.12,60.72 373.12,60.72
             373.12,60.72 384.41,67.97 384.41,67.97
             384.41,67.97 390.06,71.53 390.06,71.53
             390.06,71.53 395.47,78.59 395.47,78.59
             395.47,78.59 398.34,83.12 398.34,83.12
             398.34,83.12 401.12,85.84 401.12,85.84
             401.12,85.84 401.53,88.22 401.53,88.22
             401.53,88.22 402.34,91.03 402.34,91.03
             402.34,91.03 402.06,94.91 402.06,94.91
             402.06,94.91 399.41,95.12 399.41,95.12
             399.41,95.12 397.25,93.88 397.25,93.88
             397.25,93.88 391.81,91.19 391.81,91.19
             391.81,91.19 390.38,89.16 390.38,89.16
             390.38,89.16 389.41,89.53 389.41,89.53
             389.41,89.53 389.53,90.47 389.53,90.47
             389.53,90.47 391.66,93.03 391.66,93.03
             391.66,93.03 393.69,97.38 393.69,97.38
             393.69,97.38 394.59,101.06 394.59,101.06
             394.59,101.06 394.97,103.47 394.97,103.47
             394.97,103.47 395.53,104.31 395.53,104.31
             395.53,104.31 396.31,107.62 396.31,107.62
             396.31,107.62 396.34,112.94 396.34,112.94
             396.34,112.94 396.31,114.53 396.31,114.53
             396.31,114.53 395.28,115.56 395.28,115.56
             395.28,115.56 394.28,116.56 394.28,116.56
             394.28,116.56 393.31,116.62 393.31,116.62
             393.31,116.62 391.69,115.72 391.69,115.72
             391.69,115.72 388.28,112.59 388.28,112.59
             388.28,112.59 387.53,112.69 387.53,112.69
             387.53,112.69 387.59,114.50 387.59,114.50
             387.59,114.50 388.34,115.69 388.34,115.69
             388.34,115.69 389.72,117.78 389.72,117.78
             389.72,117.78 390.62,120.16 390.62,120.16
             390.62,120.16 390.91,121.69 390.91,121.69
             390.91,121.69 391.97,122.75 391.97,122.75
             391.97,122.75 392.38,124.88 392.38,124.88
             392.38,124.88 393.44,127.25 393.44,127.25
             393.44,127.25 393.44,134.66 393.44,134.66
             393.44,134.66 393.94,138.34 393.94,138.34
             393.94,138.34 394.91,150.34 394.91,150.34
             394.91,150.34 393.97,152.75 393.97,152.75
             393.97,152.75 392.75,154.44 392.75,154.44
             392.75,154.44 390.56,156.56 390.56,156.56
             390.56,156.56 388.53,155.47 388.53,155.47
             388.53,155.47 386.69,149.00 386.69,149.00
             386.69,149.00 382.94,144.00 382.94,144.00
             382.94,144.00 382.69,141.44 382.69,141.44
             382.69,141.44 381.66,143.00 381.66,143.00
             381.66,143.00 381.69,147.72 381.69,147.72
             381.69,147.72 382.62,149.94 382.62,149.94
             382.62,149.94 383.28,151.91 383.28,151.91
             383.28,151.91 384.06,152.00 384.06,152.00
             384.06,152.00 384.25,169.50 384.25,169.50
             384.25,169.50 384.75,183.22 384.75,183.22
             384.75,183.22 383.62,184.81 383.62,184.81
             383.62,184.81 383.56,187.16 383.56,187.16
             383.56,187.16 384.56,188.50 384.56,188.50
             384.56,188.50 384.69,209.97 384.69,209.97
             384.69,209.97 384.73,248.36 384.73,248.36
             384.73,248.36 384.74,268.35 384.74,268.35
             384.74,268.35 384.57,298.48 384.57,298.48
             384.57,298.48 384.65,327.96 384.65,327.96
             384.65,327.96 384.26,356.83 384.26,356.83
             384.26,356.83 384.09,386.74 384.09,386.74
             384.09,386.74 384.22,416.96 384.22,416.96
             384.22,416.96 384.00,447.35 384.00,447.35
             384.00,447.35 383.57,468.78 383.57,468.78
             383.57,468.78 383.78,483.65 383.78,483.65
             383.78,483.65 383.70,500.17 383.70,500.17
             383.70,500.17 388.35,507.26 388.35,507.26
             388.35,507.26 391.74,516.22 391.74,516.22
             391.74,516.22 394.30,527.83 394.30,527.83
             394.30,527.83 394.35,538.91 394.35,538.91
             394.35,538.91 391.09,550.48 391.09,550.48
             391.09,550.48 381.78,561.09 381.78,561.09
             381.78,561.09 365.00,570.48 365.00,570.48
             365.00,570.48 351.83,570.83 351.83,570.83
             351.83,570.83 341.26,566.04 341.26,566.04
             341.26,566.04 337.87,564.26 337.87,564.26
             337.87,564.26 311.22,564.65 311.22,564.65
             311.22,564.65 308.04,569.04 308.04,569.04
             308.04,569.04 281.04,569.39 281.04,569.39
             281.04,569.39 244.83,569.13 244.83,569.13
             244.83,569.13 242.57,568.96 242.57,568.96
             242.57,568.96 240.43,567.61 240.43,567.61
             240.43,567.61 237.26,567.83 237.26,567.83
             237.26,567.83 233.22,568.65 233.22,568.65
             233.22,568.65 227.43,567.00 227.43,567.00
             227.43,567.00 207.83,567.13 207.83,567.13
             207.83,567.13 171.78,567.83 171.78,567.83
             171.78,567.83 169.83,570.00 169.83,570.00
             169.83,570.00 164.57,569.91 164.57,569.91
             164.57,569.91 161.83,567.70 161.83,567.70
             161.83,567.70 138.65,568.43 138.65,568.43
             138.65,568.43 122.96,569.13 122.96,569.13
             122.96,569.13 117.43,563.39 117.43,563.39
             117.43,563.39 106.39,563.83 106.39,563.83
             106.39,563.83 106.50,573.88 106.50,573.88
             106.50,573.88 104.88,574.62 104.88,574.62
             104.88,574.62 97.88,573.31 97.88,573.31
             97.88,573.31 91.38,572.50 91.38,572.50
             91.38,572.50 82.69,569.12 82.69,569.12
             82.69,569.12 78.88,571.69 78.88,571.69
             78.88,571.69 71.00,573.38 71.00,573.38
             71.00,573.38 62.06,573.12 62.06,573.12
             62.06,573.12 49.88,569.19 49.88,569.19
             49.88,569.19 40.38,564.44 40.38,564.44
             40.38,564.44 30.00,552.25 30.00,552.25
             30.00,552.25 23.50,537.38 23.50,537.38
             23.50,537.38 23.94,515.50 23.94,515.50
             23.94,515.50 25.88,512.00 25.88,512.00
             25.88,512.00 22.00,508.94 22.00,508.94
             22.00,508.94 16.84,506.09 16.84,506.09
             16.84,506.09 14.91,500.47 14.91,500.47
             14.91,500.47 16.16,496.44 16.16,496.44
             16.16,496.44 27.81,487.12 27.81,487.12
             27.81,487.12 25.53,485.22 25.53,485.22
             25.53,485.22 17.41,476.72 17.41,476.72
             17.41,476.72 12.66,476.72 12.66,476.72
             12.66,476.72 9.31,478.03 9.31,478.03
             9.31,478.03 6.66,476.00 6.66,476.00
             6.66,476.00 5.03,472.66 5.03,472.66
             5.03,472.66 4.50,470.12 4.50,470.12
             4.50,470.12 6.03,466.81 6.03,466.81
             6.03,466.81 12.12,459.12 12.12,459.12
             12.12,459.12 17.22,455.50 17.22,455.50
             17.22,455.50 23.44,454.03 23.44,454.03
             23.44,454.03 27.62,455.56 27.62,455.56
             27.62,455.56 28.94,451.41 28.94,451.41
             28.94,451.41 29.25,432.72 29.25,432.72
             29.25,432.72 29.38,412.00 29.38,412.00
             29.38,412.00 29.19,391.47 29.19,391.47
             29.19,391.47 29.03,370.06 29.03,370.06
             29.03,370.06 29.25,350.03 29.25,350.03
             29.25,350.03 29.28,330.31 29.28,330.31
             29.28,330.31 29.56,308.97 29.56,308.97
             29.56,308.97 30.28,306.31 30.28,306.31
             30.28,306.31 32.47,304.44 32.47,304.44
             32.47,304.44 32.50,302.84 32.50,302.84
             32.50,302.84 31.38,300.19 31.38,300.19
             31.38,300.19 31.12,292.22 31.12,292.22
             31.12,292.22 31.44,272.28 31.44,272.28
             31.44,272.28 31.59,265.78 31.59,265.78
             31.59,265.78 33.44,264.12 33.44,264.12
             33.44,264.12 33.62,262.03 33.62,262.03
             33.62,262.03 31.59,258.81 31.59,258.81
             31.59,258.81 29.78,249.19 29.78,249.19" />
</svg>
